# Blender v2.92.0 OBJ File: ''
# www.blender.org
o Kostka.003_floor
v -5.067766 0.000000 -14.853674
v -5.067766 2.000000 -14.853674
v -5.067766 0.000000 -12.853674
v -5.067766 2.000000 -12.853674
v -7.067766 0.000000 -14.853674
v -7.067766 2.000000 -14.853674
v -7.067766 0.000000 -12.853674
v -7.067766 2.000000 -12.853674
v 100.000000 0.000000 -100.000000
v -100.000000 0.000000 -100.000000
v 100.000000 0.000000 100.000000
v -100.000000 0.000000 100.000000
v -18.695936 0.000000 -1.000000
v -18.695936 2.000000 -1.000000
v -18.695936 0.000000 1.000000
v -18.695936 2.000000 1.000000
v -20.695936 0.000000 -1.000000
v -20.695936 2.000000 -1.000000
v -20.695936 0.000000 1.000000
v -20.695936 2.000000 1.000000
v 8.216738 0.000000 -1.000000
v 8.216738 2.000000 -1.000000
v 8.216738 0.000000 1.000000
v 8.216738 2.000000 1.000000
v 6.216738 0.000000 -1.000000
v 6.216738 2.000000 -1.000000
v 6.216738 0.000000 1.000000
v 6.216738 2.000000 1.000000
v 8.216738 0.000000 -14.853674
v 8.216738 2.000000 -14.853674
v 8.216738 0.000000 -12.853674
v 8.216738 2.000000 -12.853674
v 6.216738 0.000000 -14.853674
v 6.216738 2.000000 -14.853674
v 6.216738 0.000000 -12.853674
v 6.216738 2.000000 -12.853674
v -5.067766 0.000000 14.276726
v -5.067766 2.000000 14.276726
v -5.067766 0.000000 16.276726
v -5.067766 2.000000 16.276726
v -7.067766 0.000000 14.276726
v -7.067766 2.000000 14.276726
v -7.067766 0.000000 16.276726
v -7.067766 2.000000 16.276726
v -5.067766 0.000000 3.960108
v -5.067766 2.000000 3.960108
v -5.067766 0.000000 5.960108
v -5.067766 2.000000 5.960108
v -7.067766 0.000000 3.960108
v -7.067766 2.000000 3.960108
v -7.067766 0.000000 5.960108
v -7.067766 2.000000 5.960108
vt 0.625000 0.000000
vt 0.375000 0.250000
vt 0.375000 0.000000
vt 0.625000 0.250000
vt 0.375000 0.500000
vt 0.625000 0.500000
vt 0.375000 0.750000
vt 0.625000 0.750000
vt 0.375000 1.000000
vt 0.125000 0.750000
vt 0.125000 0.500000
vt 0.875000 0.500000
vt 1.000000 0.000000
vt 0.000000 1.000000
vt 0.000000 0.000000
vt 0.625000 0.000000
vt 0.375000 0.250000
vt 0.375000 0.000000
vt 0.625000 0.250000
vt 0.375000 0.500000
vt 0.625000 0.500000
vt 0.375000 0.750000
vt 0.625000 0.750000
vt 0.375000 1.000000
vt 0.125000 0.750000
vt 0.125000 0.500000
vt 0.875000 0.500000
vt 0.625000 0.000000
vt 0.375000 0.250000
vt 0.375000 0.000000
vt 0.625000 0.250000
vt 0.375000 0.500000
vt 0.625000 0.500000
vt 0.375000 0.750000
vt 0.625000 0.750000
vt 0.375000 1.000000
vt 0.125000 0.750000
vt 0.125000 0.500000
vt 0.875000 0.500000
vt 0.625000 0.000000
vt 0.375000 0.250000
vt 0.375000 0.000000
vt 0.625000 0.250000
vt 0.375000 0.500000
vt 0.625000 0.500000
vt 0.375000 0.750000
vt 0.625000 0.750000
vt 0.375000 1.000000
vt 0.125000 0.750000
vt 0.125000 0.500000
vt 0.875000 0.500000
vt 0.625000 0.000000
vt 0.375000 0.250000
vt 0.375000 0.000000
vt 0.625000 0.250000
vt 0.375000 0.500000
vt 0.625000 0.500000
vt 0.375000 0.750000
vt 0.625000 0.750000
vt 0.375000 1.000000
vt 0.125000 0.750000
vt 0.125000 0.500000
vt 0.875000 0.500000
vt 0.625000 0.000000
vt 0.375000 0.250000
vt 0.375000 0.000000
vt 0.625000 0.250000
vt 0.375000 0.500000
vt 0.625000 0.500000
vt 0.375000 0.750000
vt 0.625000 0.750000
vt 0.375000 1.000000
vt 0.125000 0.750000
vt 0.125000 0.500000
vt 0.875000 0.500000
vt 0.625000 1.000000
vt 0.875000 0.750000
vt 1.000000 1.000000
vt 0.625000 1.000000
vt 0.875000 0.750000
vt 0.625000 1.000000
vt 0.875000 0.750000
vt 0.625000 1.000000
vt 0.875000 0.750000
vt 0.625000 1.000000
vt 0.875000 0.750000
vt 0.625000 1.000000
vt 0.875000 0.750000
vn 1.0000 0.0000 0.0000
vn 0.0000 0.0000 1.0000
vn -1.0000 0.0000 0.0000
vn 0.0000 0.0000 -1.0000
vn 0.0000 -1.0000 0.0000
vn 0.0000 1.0000 0.0000
s off
f 2/1/1 3/2/1 1/3/1
f 4/4/2 7/5/2 3/2/2
f 8/6/3 5/7/3 7/5/3
f 6/8/4 1/9/4 5/7/4
f 7/5/5 1/10/5 3/11/5
f 4/12/6 6/8/6 8/6/6
f 10/13/6 11/14/6 9/15/6
f 14/16/1 15/17/1 13/18/1
f 16/19/2 19/20/2 15/17/2
f 20/21/3 17/22/3 19/20/3
f 18/23/4 13/24/4 17/22/4
f 19/20/5 13/25/5 15/26/5
f 16/27/6 18/23/6 20/21/6
f 22/28/1 23/29/1 21/30/1
f 24/31/2 27/32/2 23/29/2
f 28/33/3 25/34/3 27/32/3
f 26/35/4 21/36/4 25/34/4
f 27/32/5 21/37/5 23/38/5
f 24/39/6 26/35/6 28/33/6
f 30/40/1 31/41/1 29/42/1
f 32/43/2 35/44/2 31/41/2
f 36/45/3 33/46/3 35/44/3
f 34/47/4 29/48/4 33/46/4
f 35/44/5 29/49/5 31/50/5
f 32/51/6 34/47/6 36/45/6
f 38/52/1 39/53/1 37/54/1
f 40/55/2 43/56/2 39/53/2
f 44/57/3 41/58/3 43/56/3
f 42/59/4 37/60/4 41/58/4
f 43/56/5 37/61/5 39/62/5
f 40/63/6 42/59/6 44/57/6
f 46/64/1 47/65/1 45/66/1
f 48/67/2 51/68/2 47/65/2
f 52/69/3 49/70/3 51/68/3
f 50/71/4 45/72/4 49/70/4
f 51/68/5 45/73/5 47/74/5
f 48/75/6 50/71/6 52/69/6
f 2/1/1 4/4/1 3/2/1
f 4/4/2 8/6/2 7/5/2
f 8/6/3 6/8/3 5/7/3
f 6/8/4 2/76/4 1/9/4
f 7/5/5 5/7/5 1/10/5
f 4/12/6 2/77/6 6/8/6
f 10/13/6 12/78/6 11/14/6
f 14/16/1 16/19/1 15/17/1
f 16/19/2 20/21/2 19/20/2
f 20/21/3 18/23/3 17/22/3
f 18/23/4 14/79/4 13/24/4
f 19/20/5 17/22/5 13/25/5
f 16/27/6 14/80/6 18/23/6
f 22/28/1 24/31/1 23/29/1
f 24/31/2 28/33/2 27/32/2
f 28/33/3 26/35/3 25/34/3
f 26/35/4 22/81/4 21/36/4
f 27/32/5 25/34/5 21/37/5
f 24/39/6 22/82/6 26/35/6
f 30/40/1 32/43/1 31/41/1
f 32/43/2 36/45/2 35/44/2
f 36/45/3 34/47/3 33/46/3
f 34/47/4 30/83/4 29/48/4
f 35/44/5 33/46/5 29/49/5
f 32/51/6 30/84/6 34/47/6
f 38/52/1 40/55/1 39/53/1
f 40/55/2 44/57/2 43/56/2
f 44/57/3 42/59/3 41/58/3
f 42/59/4 38/85/4 37/60/4
f 43/56/5 41/58/5 37/61/5
f 40/63/6 38/86/6 42/59/6
f 46/64/1 48/67/1 47/65/1
f 48/67/2 52/69/2 51/68/2
f 52/69/3 50/71/3 49/70/3
f 50/71/4 46/87/4 45/72/4
f 51/68/5 49/70/5 45/73/5
f 48/75/6 46/88/6 50/71/6
